#tb 0: 1/25
0,          0,          0,        1,   149760, 0xdb5e3b56
0,          1,          1,        1,   149760, 0xe328e677
0,          2,          2,        1,   149760, 0x8f18f4c0
0,          3,          3,        1,   149760, 0xf48de64c
0,          4,          4,        1,   149760, 0x2937ad23
0,          5,          5,        1,   149760, 0x93f166d2
0,          6,          6,        1,   149760, 0x80e4e9c2
0,          7,          7,        1,   149760, 0xb2a35da7
0,          8,          8,        1,   149760, 0xf4fbb5c2
0,          9,          9,        1,   149760, 0x2193bd91
0,         10,         10,        1,   149760, 0xd4eec3b4
0,         11,         11,        1,   149760, 0xb2e20b91
0,         12,         12,        1,   149760, 0xaf8d17dc
0,         13,         13,        1,   149760, 0x2189ac78
0,         14,         14,        1,   149760, 0x52b8130f
0,         15,         15,        1,   149760, 0xdfbc2f0a
0,         16,         16,        1,   149760, 0x4c0269cf
0,         17,         17,        1,   149760, 0xf99bb7d2
0,         18,         18,        1,   149760, 0xada1495f
0,         19,         19,        1,   149760, 0x57c42893
0,         20,         20,        1,   149760, 0x022d29ca
0,         21,         21,        1,   149760, 0x9883a271
0,         22,         22,        1,   149760, 0xc8c132d7
0,         23,         23,        1,   149760, 0xa97f8b43
0,         24,         24,        1,   149760, 0x1bc187fa
0,         25,         25,        1,   149760, 0x7b93951b
0,         26,         26,        1,   149760, 0x88fd367c
0,         27,         27,        1,   149760, 0x29471b92
0,         28,         28,        1,   149760, 0x3ba820f1
0,         29,         29,        1,   149760, 0x0a223169
0,         30,         30,        1,   149760, 0x70fee1d5
0,         31,         31,        1,   149760, 0x5f5cf053
0,         32,         32,        1,   149760, 0x698f11e4
0,         33,         33,        1,   149760, 0x65314fd4
0,         34,         34,        1,   149760, 0x7a689450
0,         35,         35,        1,   149760, 0x28774ca0
0,         36,         36,        1,   149760, 0x0751f804
0,         37,         37,        1,   149760, 0x875a6fb9
0,         38,         38,        1,   149760, 0xde1f5309
0,         39,         39,        1,   149760, 0x82701dd6
0,         40,         40,        1,   149760, 0x13a2f45e
0,         41,         41,        1,   149760, 0xfc3b140c
0,         42,         42,        1,   149760, 0x4518ab47
0,         43,         43,        1,   149760, 0xe5459482
0,         44,         44,        1,   149760, 0x4cfafc6e
0,         45,         45,        1,   149760, 0xc7cd5e43
0,         46,         46,        1,   149760, 0x1ee79746
0,         47,         47,        1,   149760, 0xccc73c83
0,         48,         48,        1,   149760, 0xd9ecafc7
0,         49,         49,        1,   149760, 0x65221c9d
0,         50,         50,        1,   149760, 0x219b0b4b
0,         51,         51,        1,   149760, 0x9d1e2010
0,         52,         52,        1,   149760, 0x11685e16
0,         53,         53,        1,   149760, 0x37eb1297
0,         54,         54,        1,   149760, 0x99088778
0,         55,         55,        1,   149760, 0xb41cbf25
0,         56,         56,        1,   149760, 0x56f78bda
0,         57,         57,        1,   149760, 0x6c284868
0,         58,         58,        1,   149760, 0x37f245b9
0,         59,         59,        1,   149760, 0x79682de2
0,         60,         60,        1,   149760, 0x5a04f379
0,         61,         61,        1,   149760, 0xfecc668b
0,         62,         62,        1,   149760, 0x29328d8c
0,         63,         63,        1,   149760, 0x8aff3ad7
0,         64,         64,        1,   149760, 0x4035f027
0,         65,         65,        1,   149760, 0xe7cead1d
0,         66,         66,        1,   149760, 0x18578492
0,         67,         67,        1,   149760, 0xd3ab3f9d
0,         68,         68,        1,   149760, 0x6f866e38
0,         69,         69,        1,   149760, 0x6a47800c
0,         70,         70,        1,   149760, 0x01c6305e
0,         71,         71,        1,   149760, 0x489ab5a8
0,         72,         72,        1,   149760, 0xb2570787
0,         73,         73,        1,   149760, 0xb0d5d478
0,         74,         74,        1,   149760, 0x88484ccc
0,         75,         75,        1,   149760, 0xb4c6be2c
0,         76,         76,        1,   149760, 0x461d874c
0,         77,         77,        1,   149760, 0x3be464b0
0,         78,         78,        1,   149760, 0x06aa9443
0,         79,         79,        1,   149760, 0xe0e625a3
0,         80,         80,        1,   149760, 0x17e2daeb
0,         81,         81,        1,   149760, 0x58a1a350
0,         82,         82,        1,   149760, 0xcd4983ce
0,         83,         83,        1,   149760, 0x90459a42
0,         84,         84,        1,   149760, 0x899dedaa
0,         85,         85,        1,   149760, 0x814e3529
0,         86,         86,        1,   149760, 0x5795a2e5
0,         87,         87,        1,   149760, 0xcedb245c
0,         88,         88,        1,   149760, 0x37f9dd30
0,         89,         89,        1,   149760, 0x320d899e
0,         90,         90,        1,   149760, 0x6a33ffca
0,         91,         91,        1,   149760, 0x6620b9eb
0,         92,         92,        1,   149760, 0xfc8b1e1b
0,         93,         93,        1,   149760, 0x835a0dd9
0,         94,         94,        1,   149760, 0xcee4a9b0
0,         95,         95,        1,   149760, 0x2c2972f0
0,         96,         96,        1,   149760, 0x0a39aa8b
0,         97,         97,        1,   149760, 0xa8a9c0bf
0,         98,         98,        1,   149760, 0xd563c087
0,         99,         99,        1,   149760, 0xb0f88320
0,        100,        100,        1,   149760, 0x0ffffd6b
0,        101,        101,        1,   149760, 0x95269e8c
0,        102,        102,        1,   149760, 0xd0d4acd9
0,        103,        103,        1,   149760, 0x7cf06805
0,        104,        104,        1,   149760, 0xa5192bbe
0,        105,        105,        1,   149760, 0x2fed928b
0,        106,        106,        1,   149760, 0x549edd04
0,        107,        107,        1,   149760, 0xa42b55d7
0,        108,        108,        1,   149760, 0xeab32579
0,        109,        109,        1,   149760, 0x95a727c3
0,        110,        110,        1,   149760, 0x76714576
0,        111,        111,        1,   149760, 0x5efc352a
0,        112,        112,        1,   149760, 0x154a2c06
0,        113,        113,        1,   149760, 0x516faf62
0,        114,        114,        1,   149760, 0x622b6d64
0,        115,        115,        1,   149760, 0x2ada08a9
0,        116,        116,        1,   149760, 0xf24efa06
0,        117,        117,        1,   149760, 0x5979b33e
0,        118,        118,        1,   149760, 0x2130a282
0,        119,        119,        1,   149760, 0x1ee8b3d1
0,        120,        120,        1,   149760, 0x840c6913
0,        121,        121,        1,   149760, 0xa37049b8
0,        122,        122,        1,   149760, 0x8d95efb0
0,        123,        123,        1,   149760, 0x22d3afb2
0,        124,        124,        1,   149760, 0x113d6c6f
0,        125,        125,        1,   149760, 0xb407014d
0,        126,        126,        1,   149760, 0x33a8e5c9
0,        127,        127,        1,   149760, 0x2689ced2
0,        128,        128,        1,   149760, 0x3eaf3f55
0,        129,        129,        1,   149760, 0x93ad7fa5
0,        130,        130,        1,   149760, 0x30c15154
0,        131,        131,        1,   149760, 0xdce68c7a
0,        132,        132,        1,   149760, 0xea092d4c
0,        133,        133,        1,   149760, 0xed679468
0,        134,        134,        1,   149760, 0x9128c0d5
0,        135,        135,        1,   149760, 0xd4f121ba
0,        136,        136,        1,   149760, 0xe5e228f0
0,        137,        137,        1,   149760, 0x8246dae3
0,        138,        138,        1,   149760, 0x8a3b430c
0,        139,        139,        1,   149760, 0x9a8edc3d
0,        140,        140,        1,   149760, 0x68b0af97
0,        141,        141,        1,   149760, 0x90d54b52
0,        142,        142,        1,   149760, 0xd6395796
0,        143,        143,        1,   149760, 0x70986b40
0,        144,        144,        1,   149760, 0xc0b4a9c8
0,        145,        145,        1,   149760, 0x760b973b
0,        146,        146,        1,   149760, 0xe8fe9846
0,        147,        147,        1,   149760, 0x61062c97
0,        148,        148,        1,   149760, 0x9148e99b
0,        149,        149,        1,   149760, 0x962c6a1e
0,        150,        150,        1,   149760, 0x57bb088f
0,        151,        151,        1,   149760, 0x2b0fa8c5
0,        152,        152,        1,   149760, 0x00f932fc
0,        153,        153,        1,   149760, 0x4cc58697
0,        154,        154,        1,   149760, 0xd2bf178f
0,        155,        155,        1,   149760, 0xc510c1cd
0,        156,        156,        1,   149760, 0xc48e0192
0,        157,        157,        1,   149760, 0xa03e7fe5
0,        158,        158,        1,   149760, 0xb68ce060
0,        159,        159,        1,   149760, 0x653951c8
0,        160,        160,        1,   149760, 0xbd1abe11
0,        161,        161,        1,   149760, 0xad7a2366
0,        162,        162,        1,   149760, 0xb018279e
0,        163,        163,        1,   149760, 0xd5994bff
0,        164,        164,        1,   149760, 0x3eb7e082
0,        165,        165,        1,   149760, 0x87257b3a
0,        166,        166,        1,   149760, 0x12fc4c4d
0,        167,        167,        1,   149760, 0x9fbfa94d
0,        168,        168,        1,   149760, 0x61714cae
0,        169,        169,        1,   149760, 0xae291b59
0,        170,        170,        1,   149760, 0x8f161442
0,        171,        171,        1,   149760, 0x603cf3a5
0,        172,        172,        1,   149760, 0xf9f214a0
0,        173,        173,        1,   149760, 0xbbf5dcb9
0,        174,        174,        1,   149760, 0x8af1a1ab
0,        175,        175,        1,   149760, 0x16f581e5
0,        176,        176,        1,   149760, 0xdadd8eed
0,        177,        177,        1,   149760, 0x2f1acd8e
0,        178,        178,        1,   149760, 0xa28bd660
0,        179,        179,        1,   149760, 0x7902dd67
0,        180,        180,        1,   149760, 0x9b771dc2
0,        181,        181,        1,   149760, 0x0fc82bda
0,        182,        182,        1,   149760, 0xd6128167
0,        183,        183,        1,   149760, 0xe57b7a2f
0,        184,        184,        1,   149760, 0x1e158d0e
0,        185,        185,        1,   149760, 0x682c7c60
0,        186,        186,        1,   149760, 0x32096bbe
0,        187,        187,        1,   149760, 0x297652f2
0,        188,        188,        1,   149760, 0x056c7432
0,        189,        189,        1,   149760, 0x0469b39a
0,        190,        190,        1,   149760, 0x00044bc9
0,        191,        191,        1,   149760, 0x766c0bad
0,        192,        192,        1,   149760, 0xd6720a40
0,        193,        193,        1,   149760, 0x814895eb
0,        194,        194,        1,   149760, 0x1a84fcbc
0,        195,        195,        1,   149760, 0x8b9442aa
0,        196,        196,        1,   149760, 0x290187d1
0,        197,        197,        1,   149760, 0x8f87294f
0,        198,        198,        1,   149760, 0x8c49a125
0,        199,        199,        1,   149760, 0xe169806a
0,        200,        200,        1,   149760, 0x18c0e2f1
0,        201,        201,        1,   149760, 0xb92b0e67
0,        202,        202,        1,   149760, 0x98d2acef
0,        203,        203,        1,   149760, 0x179eeaec
0,        204,        204,        1,   149760, 0xa054a7bb
0,        205,        205,        1,   149760, 0x5f78d160
0,        206,        206,        1,   149760, 0x09f9a40f
0,        207,        207,        1,   149760, 0xfb4a59f5
0,        208,        208,        1,   149760, 0xdc5ca1f2
0,        209,        209,        1,   149760, 0xf2254927
0,        210,        210,        1,   149760, 0xfda4fab3
0,        211,        211,        1,   149760, 0x45ab23cc
0,        212,        212,        1,   149760, 0x1f69c006
0,        213,        213,        1,   149760, 0x326bb5a1
0,        214,        214,        1,   149760, 0x810dad28
0,        215,        215,        1,   149760, 0x96dfc515
0,        216,        216,        1,   149760, 0xc685fd80
0,        217,        217,        1,   149760, 0x18da42f4
0,        218,        218,        1,   149760, 0x11773807
0,        219,        219,        1,   149760, 0x3f54c458
0,        220,        220,        1,   149760, 0xa5dff146
0,        221,        221,        1,   149760, 0x4bc3ffcb
0,        222,        222,        1,   149760, 0x84801971
0,        223,        223,        1,   149760, 0x2ff65539
0,        224,        224,        1,   149760, 0x8a7f716d
0,        225,        225,        1,   149760, 0xe7e8cdd0
0,        226,        226,        1,   149760, 0xc8567d5f
0,        227,        227,        1,   149760, 0x63986bcd
0,        228,        228,        1,   149760, 0x8817f648
0,        229,        229,        1,   149760, 0xa0152e36
0,        230,        230,        1,   149760, 0x2eca851e
0,        231,        231,        1,   149760, 0x09c0f0cb
0,        232,        232,        1,   149760, 0xf1c81b23
0,        233,        233,        1,   149760, 0x93096c98
0,        234,        234,        1,   149760, 0x1fe47331
0,        235,        235,        1,   149760, 0x79c0b70e
0,        236,        236,        1,   149760, 0xb1929b60
0,        237,        237,        1,   149760, 0xb42ea35a
0,        238,        238,        1,   149760, 0x42d5bf86
0,        239,        239,        1,   149760, 0xa83efbd4
0,        240,        240,        1,   149760, 0xbdd2f313
0,        241,        241,        1,   149760, 0x85a5dbd4
0,        242,        242,        1,   149760, 0xc475b180
0,        243,        243,        1,   149760, 0x63911e68
0,        244,        244,        1,   149760, 0x5b79baab
0,        245,        245,        1,   149760, 0xa22d310e
0,        246,        246,        1,   149760, 0x243ef7b5
0,        247,        247,        1,   149760, 0x813fdc95
0,        248,        248,        1,   149760, 0xbb7d19fa
0,        249,        249,        1,   149760, 0x199ae62c
0,        250,        250,        1,   149760, 0x7a4ce5b2
0,        251,        251,        1,   149760, 0xd632a9d3
0,        252,        252,        1,   149760, 0xc07b75fe
0,        253,        253,        1,   149760, 0x5bae6a88
0,        254,        254,        1,   149760, 0x29b411e0
0,        255,        255,        1,   149760, 0x78706cbe
0,        256,        256,        1,   149760, 0x2659a6cb
0,        257,        257,        1,   149760, 0xefb170f8
0,        258,        258,        1,   149760, 0x9dd107b8
0,        259,        259,        1,   149760, 0xf38b5ce5
0,        260,        260,        1,   149760, 0xd7e0f10e
0,        261,        261,        1,   149760, 0x080b9e49
0,        262,        262,        1,   149760, 0xa2274c3b
0,        263,        263,        1,   149760, 0x3d3376c9
0,        264,        264,        1,   149760, 0xe04719e3
0,        265,        265,        1,   149760, 0xfe4123e3
0,        266,        266,        1,   149760, 0x769a3cf6
0,        267,        267,        1,   149760, 0xaf0be9e6
0,        268,        268,        1,   149760, 0xe9baa873
0,        269,        269,        1,   149760, 0x4f5fb405
0,        270,        270,        1,   149760, 0x207b401e
0,        271,        271,        1,   149760, 0xb1483351
0,        272,        272,        1,   149760, 0x5fe3dc9f
0,        273,        273,        1,   149760, 0xb35dcae7
0,        274,        274,        1,   149760, 0x8cc69de4
0,        275,        275,        1,   149760, 0xd6e29308
0,        276,        276,        1,   149760, 0xf8f53227
0,        277,        277,        1,   149760, 0xaf483e80
0,        278,        278,        1,   149760, 0x287cdfc9
0,        279,        279,        1,   149760, 0xf72b93eb
0,        280,        280,        1,   149760, 0x09c26976
0,        281,        281,        1,   149760, 0xae58601f
0,        282,        282,        1,   149760, 0x7f951546
0,        283,        283,        1,   149760, 0x81e742b2
0,        284,        284,        1,   149760, 0xb16554a6
0,        285,        285,        1,   149760, 0xcdafc4c0
0,        286,        286,        1,   149760, 0x0bb335bc
0,        287,        287,        1,   149760, 0xe1e4ba60
0,        288,        288,        1,   149760, 0xcce3eb48
0,        289,        289,        1,   149760, 0x8b8992a9
0,        290,        290,        1,   149760, 0x0a5ff2f6
0,        291,        291,        1,   149760, 0xb04b8ed1
0,        292,        292,        1,   149760, 0x0c874aae
0,        293,        293,        1,   149760, 0x19d6f138
0,        294,        294,        1,   149760, 0x30e322f2
0,        295,        295,        1,   149760, 0x67a5700c
0,        296,        296,        1,   149760, 0xb65bd462
0,        297,        297,        1,   149760, 0xe267d09e
0,        298,        298,        1,   149760, 0x8824c043
0,        299,        299,        1,   149760, 0x680cfc20
